<?xml version="1.0" encoding="utf-8"?>
<!-- Svg Vector Icons : http://www.onlinewebfonts.com/icon -->
<!DOCTYPE svg PUBLIC "-//W3C//DTD SVG 1.1//EN" "http://www.w3.org/Graphics/SVG/1.1/DTD/svg11.dtd">
<svg version="1.1" xmlns="http://www.w3.org/2000/svg" xmlns:xlink="http://www.w3.org/1999/xlink" x="0px" y="0px" viewBox="0 0 1000 1000" enable-background="new 0 0 1000 1000" xml:space="preserve">
<metadata> Svg Vector Icons : http://www.onlinewebfonts.com/icon </metadata>
<g><g><g><g><path d="M306.3,550c0,0-0.8,34.4-41.8,75.2c-41,40.9-80.5,42.9-80.5,42.9l168.9,169h-14V990h360.4V837.1H593.5L306.3,550z M670.7,961.5H367.4v-95.8h303.4L670.7,961.5L670.7,961.5z"/></g><g><circle cx="159.6" cy="507.2" r="54.7"/></g><g><path d="M297.6,507.2c0-4.8-0.2-9.4-0.7-14.1c-7.2-70.7-66.2-124-137.4-124c-76.1,0-138.1,61.9-138.1,138.1c0,76.1,61.9,138,138.1,138C235.7,645.2,297.6,583.3,297.6,507.2z M159.6,610.8C102.5,610.8,56,564.3,56,507.2c0-57.1,46.4-103.6,103.5-103.6c57.1,0,103.6,46.4,103.6,103.6C263.1,564.3,216.7,610.8,159.6,610.8z"/></g><g><path d="M970.2,105.8c-4.9-2.7-11-2.7-16,0c-2.6,1.5-4.8,3.7-6.2,6.2L847.3,292.2l-112.5-22.5l-72-130.5l37.8-96l205.8,12.8l1.5,0.1c2.5,0,5-0.6,7.4-1.9c5.1-2.7,8.3-7.7,8.6-13.3c0.3-4.4-1.1-8.5-4-11.8c-2.9-3.3-6.8-5.2-11.2-5.5L690,10c-7,0-12.7,3.8-15.3,10.3l-32.3,82l0,0l-74.4,39.4l16,30.4L229.8,359.3c0,0,26.8,0.9,64,62.1C331,482.6,314,511,314,511l349.5-188.7l16,30.3l64.9-34.3l16.6-6.6l-3.3-4.2l94.9,18.9c1.1,0.2,2.2,0.3,3.3,0.3c5.9,0,11.3-3.2,14.1-8.3l106.5-190.6C980.8,120.1,978,110.1,970.2,105.8z"/></g></g></g><g></g><g></g><g></g><g></g><g></g><g></g><g></g><g></g><g></g><g></g><g></g><g></g><g></g><g></g><g></g></g>
</svg>